<?xml version="1.0" encoding="UTF-8"?>
<svg width="4.735mm" height="4.728mm" version="1.1" viewBox="0 0 4.735 4.728" xmlns="http://www.w3.org/2000/svg">
  <g transform="translate(224.6 44.03)">
    <path d="m-224-44.03c-0.3152 0-0.5687 0.2555-0.5687 0.5693 0 0.3141 0.2533 0.5692 0.5687 0.5692 0.3141 0 0.5692-0.2552 0.5692-0.5692 0-0.3138-0.2549-0.5693-0.5692-0.5693zm2.991 1.491c-0.4778 0-0.798 0.2624-0.9295 0.5105h-0.0124v-0.4308h-0.9414v3.158h0.9796v-1.563c0-0.412 0.0783-0.8105 0.5892-0.8105 0.5034 0 0.5105 0.4713 0.5105 0.8374v1.536h0.9802v-1.734c0-0.8506-0.1832-1.504-1.176-1.504zm-3.482 0.07977v3.158h0.9829v-3.158z"/>
  </g>
</svg>
