<?xml version="1.0" encoding="UTF-8"?>
<svg width="6.567mm" height="5.337mm" version="1.1" viewBox="0 0 6.567 5.337" xmlns="http://www.w3.org/2000/svg">
  <g transform="translate(26.72 -146.2)">
    <path d="m-20.16 146.8c-0.2421 0.1064-0.5007 0.1789-0.7729 0.212 0.2774-0.1672 0.4908-0.4306 0.5918-0.745-0.2602 0.1518-0.5485 0.2624-0.8555 0.3239-0.2451-0.2624-0.5945-0.4265-0.9824-0.4265-0.7433 0-1.346 0.6027-1.346 1.345 0 0.1067 0.01232 0.2093 0.03476 0.3075-1.119-0.0529-2.111-0.5901-2.774-1.402-0.1167 0.1976-0.1822 0.4271-0.1822 0.6772 0 0.4678 0.238 0.879 0.5986 1.121-0.2208-7e-3 -0.4284-0.0678-0.6096-0.1685v0.0167c0 0.6525 0.4632 1.197 1.08 1.321-0.1129 0.0305-0.2323 0.0468-0.3546 0.0468-0.08599 0-0.1683-9e-3 -0.2506-0.0237 0.1726 0.5343 0.6689 0.9239 1.26 0.9348-0.4596 0.3609-1.042 0.5759-1.669 0.5759-0.1067 0-0.2131-6e-3 -0.3201-0.0183 0.5989 0.3814 1.304 0.6044 2.067 0.6044 2.477 0 3.83-2.051 3.83-3.826 0-0.0572 0-0.1149-0.0037-0.1724 0.2629-0.1885 0.4924-0.4268 0.673-0.6971z"/>
  </g>
</svg>
