<?xml version="1.0" encoding="UTF-8"?>
<svg width="6.477mm" height="6.477mm" version="1.1" viewBox="0 0 6.477 6.477" xmlns="http://www.w3.org/2000/svg">
  <g transform="translate(26.67 -145.6)">
    <path d="m-23.43 145.6c-0.8798 0-0.9897 4e-3 -1.335 0.0194-0.3449 0.0162-0.5797 0.0705-0.7862 0.1506-0.2129 0.0826-0.3938 0.1935-0.5738 0.3735-0.18 0.18-0.2912 0.3606-0.3735 0.5738-0.08013 0.2065-0.1347 0.4413-0.1506 0.7862-0.01622 0.3455-0.01952 0.4553-0.01952 1.335s0.0037 0.9897 0.01952 1.335c0.01622 0.3446 0.0705 0.5797 0.1506 0.7862 0.08257 0.2127 0.1935 0.3938 0.3735 0.5738 0.18 0.1798 0.3606 0.2912 0.5738 0.3735 0.2067 0.0799 0.4415 0.1347 0.7862 0.1506 0.3454 0.0162 0.4553 0.0194 1.335 0.0194s0.9897-4e-3 1.335-0.0194c0.3447-0.0162 0.5797-0.0708 0.7862-0.1506 0.2127-0.0826 0.3938-0.1938 0.5738-0.3735 0.1797-0.18 0.2912-0.3603 0.3735-0.5738 0.07989-0.2065 0.1347-0.4416 0.1506-0.7862 0.01622-0.3454 0.01939-0.4553 0.01939-1.335s-0.0037-0.9897-0.01939-1.335c-0.01622-0.3446-0.07074-0.58-0.1506-0.7862-0.08257-0.2129-0.1938-0.3938-0.3735-0.5738-0.18-0.18-0.3603-0.2912-0.5738-0.3735-0.2065-0.0801-0.4415-0.1347-0.7862-0.1506-0.3455-0.0162-0.4553-0.0194-1.335-0.0194zm0 0.5829c0.8645 0 0.9675 4e-3 1.309 0.0191 0.3158 0.0149 0.4871 0.0672 0.601 0.112 0.1517 0.0585 0.2591 0.1287 0.373 0.2418 0.1131 0.1133 0.1832 0.221 0.2418 0.3727 0.04428 0.1139 0.09709 0.2853 0.1115 0.601 0.01537 0.3417 0.0189 0.4442 0.0189 1.309 0 0.8647-0.0037 0.9675-0.02 1.309-0.01647 0.3158-0.06904 0.4872-0.1137 0.601-0.0605 0.1517-0.1293 0.2591-0.2426 0.373-0.1131 0.1131-0.2224 0.1833-0.3724 0.2418-0.1133 0.0443-0.2874 0.0971-0.6032 0.1115-0.3438 0.0154-0.445 0.0189-1.311 0.0189-0.8666 0-0.9678-4e-3 -1.311-0.02-0.316-0.0165-0.4901-0.069-0.6035-0.1137-0.1536-0.0605-0.2591-0.1293-0.3722-0.2426-0.1137-0.1131-0.1862-0.2224-0.2429-0.3724-0.04464-0.1133-0.09697-0.2874-0.1133-0.6032-0.0122-0.3401-0.01647-0.445-0.01647-1.307 0-0.8626 0.0037-0.9678 0.01647-1.312 0.01647-0.3158 0.06879-0.4896 0.1133-0.6029 0.05672-0.1538 0.1293-0.2591 0.2429-0.3727 0.1131-0.1131 0.2186-0.186 0.3722-0.2424 0.1133-0.0448 0.2837-0.0974 0.5994-0.1137 0.3441-0.0122 0.4453-0.0162 1.311-0.0162zm0 0.9926c-0.919 0-1.663 0.7449-1.663 1.663 0 0.919 0.7449 1.663 1.663 1.663 0.919 0 1.663-0.7449 1.663-1.663 0-0.919-0.7449-1.663-1.663-1.663zm0 2.743c-0.5964 0-1.08-0.4831-1.08-1.08 0-0.5964 0.4831-1.08 1.08-1.08 0.5965 0 1.08 0.4831 1.08 1.08 0 0.5964-0.4831 1.08-1.08 1.08zm2.118-2.808c0 0.2146-0.1743 0.3886-0.3886 0.3886-0.2146 0-0.3886-0.1743-0.3886-0.3886 0-0.2143 0.1743-0.3884 0.3886-0.3884 0.214-2.8e-4 0.3886 0.1741 0.3886 0.3884z""/>
  </g>
</svg>
