<?xml version="1.0" encoding="UTF-8"?>
<svg width="169.1" height="40.3" version="1.1" viewBox="0 0 44.73 10.66" xmlns="http://www.w3.org/2000/svg">
  <g transform="translate(62.43 -143.5)" stroke-width=".4431">
    <g style="font-feature-settings:normal;font-variant-caps:normal;font-variant-ligatures:normal;font-variant-numeric:normal" aria-label="Katy Holvey">
      <path d="m-62.43 144.2v-0.6724h0.7909q0.2636 0 0.3821 0.1184 0.1184 0.1184 0.1184 0.3821v1.822h0.5234q0.1681 0 0.2789-0.0382 0.1108-0.0382 0.1758-0.149l1.226-2.136h0.8788l-1.341 2.292q-0.06877 0.1223-0.149 0.214-0.07641 0.0879-0.1184 0.1146l-0.04203 0.0306v0.0153q0.01528 4e-3 0.04585 0.0191 0.03057 0.0153 0.1108 0.1032 0.08405 0.0879 0.1528 0.2254l0.8329 1.658q0.05349 0.1146 0.1414 0.149 0.08788 0.0306 0.2483 0.0306h0.149v0.6724h-0.4317q-0.3324 0-0.4852-0.0764-0.149-0.0764-0.2789-0.34l-0.9552-1.914q-0.06495-0.1261-0.1834-0.1643-0.1146-0.042-0.3095-0.042h-0.4699v2.537h-0.7832v-4.68q0-0.1719-0.1719-0.1719z" style="font-feature-settings:normal;font-variant-caps:normal;font-variant-ligatures:normal;font-variant-numeric:normal"/>
      <path d="m-57.46 147.9q0-0.2636 0.09934-0.4738 0.09934-0.214 0.2522-0.3515 0.1566-0.1414 0.3782-0.2407 0.2254-0.1032 0.4317-0.1566 0.2101-0.0535 0.4623-0.0841 0.2522-0.0306 0.4165-0.0382 0.1643-8e-3 0.3439-8e-3h0.1719v-0.0382q0-0.5158-0.2025-0.7298-0.2025-0.2178-0.6724-0.2178-0.08788 0-0.1834 0.0115-0.09552 0.0115-0.2101 0.042-0.1108 0.0306-0.1834 0.0955-0.07259 0.065-0.07259 0.1566v0.2254h-0.7107v-0.3897q0-0.2254 0.1528-0.3859 0.1528-0.1605 0.3935-0.2292 0.2407-0.0726 0.4394-0.0993 0.1987-0.0306 0.3821-0.0306 0.4661 0 0.7909 0.1184 0.3286 0.1146 0.5043 0.3324 0.1796 0.2178 0.256 0.4852 0.07641 0.2674 0.07641 0.6151v1.681q0 0.1719 0.1719 0.1719h0.3209v0.6495h-0.7107q-0.4929 0-0.4929-0.4547l0.01528-0.2331h-0.01528q-0.01146 0.0306-0.03821 0.084-0.02674 0.0535-0.1337 0.191-0.1032 0.1337-0.2369 0.2369-0.1299 0.1032-0.3591 0.1872-0.2292 0.0841-0.4929 0.0841-0.5464 0-0.9475-0.3209-0.3974-0.3248-0.3974-0.8864zm0.7641-0.0382q0 0.2598 0.1949 0.447 0.1949 0.1872 0.5502 0.1872 0.3057 0 0.554-0.1949 0.2483-0.1948 0.3744-0.4776 0.1299-0.2866 0.1299-0.5884v-0.1337h-0.1987q-0.1528 0-0.2713 4e-3t-0.2942 0.0229q-0.1758 0.0153-0.3095 0.0459-0.1299 0.0267-0.2751 0.084t-0.2407 0.1376q-0.0917 0.0764-0.1528 0.1987-0.06113 0.1184-0.06113 0.2674z" style="font-feature-settings:normal;font-variant-caps:normal;font-variant-ligatures:normal;font-variant-numeric:normal"/>
      <path d="m-53.11 145.7v-0.6075h0.5311v-1.089h0.745v1.089h0.9475v0.6075h-0.9475v1.819q0 0.2254 0.06113 0.3974 0.06113 0.1681 0.149 0.2598 0.08788 0.0917 0.2063 0.149 0.1223 0.0535 0.2178 0.0688 0.09934 0.0153 0.2025 0.0153l0.1796-0.0153v0.6724q-0.09934 0.0153-0.2636 0.0153-0.1223 0-0.2445-0.0115-0.1184-0.0115-0.2751-0.0497-0.1528-0.042-0.2866-0.1032-0.1337-0.065-0.2674-0.1758-0.1337-0.1146-0.2292-0.2636-0.0917-0.1528-0.1528-0.3782-0.05731-0.2254-0.05731-0.4967v-1.903z" style="font-feature-settings:normal;font-variant-caps:normal;font-variant-ligatures:normal;font-variant-numeric:normal"/>
      <path d="m-50.38 150.3 0.3133-0.5502q0 0.0115 0.06877 0.0764 0.07259 0.065 0.2178 0.1337 0.1452 0.0726 0.2942 0.0726 0.2254 0 0.4012-0.149 0.1796-0.149 0.2942-0.4203l0.1796-0.4317-1.353-3.137q-0.03821-0.0917-0.09552-0.1223-0.05731-0.0344-0.1566-0.0344h-0.0917v-0.6495h0.4432q0.2407 0 0.3553 0.0802t0.2101 0.3171l0.8979 2.231q0.03439 0.0917 0.06877 0.2101 0.03439 0.1184 0.05349 0.1949l0.0191 0.0726h0.01528q0.05731-0.2751 0.1337-0.4776l0.8215-2.231q0.08788-0.2331 0.2101-0.3133 0.1261-0.0841 0.3706-0.0841h0.4547v0.6495h-0.1032q-0.09934 0-0.1566 0.0344-0.05731 0.0306-0.09552 0.1223l-1.563 3.863q-0.1758 0.4508-0.5158 0.6915-0.3362 0.2407-0.7603 0.2407-0.1643 0-0.3209-0.042-0.1566-0.0382-0.2636-0.0955t-0.191-0.1146q-0.08023-0.0573-0.1184-0.0993z" style="font-feature-settings:normal;font-variant-caps:normal;font-variant-ligatures:normal;font-variant-numeric:normal"/>
      <path d="m-43.34 144.2v-0.6724h0.7909q0.2636 0 0.3821 0.1184t0.1184 0.3821v1.933h2.808v-1.933q0-0.2636 0.1184-0.3821t0.3821-0.1184h0.7909v0.6724h-0.3362q-0.1719 0-0.1719 0.1719v4.68h-0.7832v-2.426h-2.808v2.426h-0.7832v-4.68q0-0.1719-0.1719-0.1719z" style="font-feature-settings:normal;font-variant-caps:normal;font-variant-ligatures:normal;font-variant-numeric:normal"/>
      <path d="m-37.54 147q0-0.5846 0.2827-1.058 0.2866-0.4776 0.7718-0.7412 0.489-0.2674 1.074-0.2674 0.4394 0 0.8291 0.1566 0.3935 0.1566 0.6801 0.4279 0.2904 0.2713 0.4585 0.6572t0.1681 0.8253q0 0.5884-0.2866 1.07-0.2866 0.4776-0.7756 0.745t-1.074 0.2674-1.074-0.2674q-0.4852-0.2674-0.7718-0.745-0.2827-0.4814-0.2827-1.07zm0.7718 0q0 0.6151 0.3935 1.02 0.3974 0.405 0.9628 0.405 0.5731 0 0.9666-0.405 0.3935-0.405 0.3935-1.02 0-0.6075-0.3935-1.009-0.3935-0.4012-0.9666-0.4012-0.5655 0-0.9628 0.4012-0.3935 0.4012-0.3935 1.009z" style="font-feature-settings:normal;font-variant-caps:normal;font-variant-ligatures:normal;font-variant-numeric:normal"/>
      <path d="m-32.79 144.2v-0.6495h0.7527q0.2636 0 0.3821 0.1184t0.1184 0.3821v4.203q0 0.1719 0.1719 0.1719h0.3209v0.6495h-0.7527q-0.2636 0-0.3821-0.1184-0.1184-0.1184-0.1184-0.3821v-4.203q0-0.1719-0.1719-0.1719z" style="font-feature-settings:normal;font-variant-caps:normal;font-variant-ligatures:normal;font-variant-numeric:normal"/>
      <path d="m-30.56 145.7v-0.6495h0.3897q0.2636 0 0.3897 0.0841 0.1261 0.0802 0.214 0.3133l0.852 2.277q0.03439 0.0955 0.06877 0.2254 0.03439 0.1299 0.05349 0.2101l0.0191 0.0802h0.01528q0.06495-0.298 0.1414-0.5158l0.8444-2.277q0.08788-0.2331 0.214-0.3133 0.1299-0.0841 0.3897-0.0841h0.3668v0.6495h-0.08023q-0.1949 0-0.256 0.1566l-1.207 3.152h-0.8749l-1.219-3.152q-0.06113-0.1566-0.2445-0.1566z" style="font-feature-settings:normal;font-variant-caps:normal;font-variant-ligatures:normal;font-variant-numeric:normal"/>
      <path d="m-26.1 147q0-0.4623 0.1528-0.852 0.1528-0.3935 0.4165-0.6572 0.2674-0.2674 0.6304-0.4164 0.3668-0.149 0.7871-0.149 0.8023 0 1.253 0.5273 0.4508 0.5272 0.4508 1.33l-0.02292 0.3095h-2.885q0.03439 0.6113 0.4203 0.9705 0.3897 0.3553 0.9399 0.3553 0.191 0 0.3782-0.0459 0.191-0.0497 0.3248-0.1184 0.1337-0.0688 0.2407-0.1337 0.107-0.0688 0.1605-0.1184l0.05349-0.0459 0.3286 0.5387q-0.02292 0.0229-0.06877 0.0649-0.04585 0.0382-0.1987 0.1375-0.149 0.0993-0.3171 0.1758-0.1643 0.0764-0.4203 0.1375-0.256 0.065-0.5196 0.065-0.9284 0-1.517-0.5922-0.5884-0.5922-0.5884-1.482zm0.8138-0.4623h2.098q-0.01528-0.4738-0.2827-0.7412-0.2636-0.2674-0.6495-0.2674-0.447 0-0.7641 0.2636-0.3133 0.2636-0.4012 0.745z" style="font-feature-settings:normal;font-variant-caps:normal;font-variant-ligatures:normal;font-variant-numeric:normal"/>
      <path d="m-21.82 150.3 0.3133-0.5502q0 0.0115 0.06877 0.0764 0.07259 0.065 0.2178 0.1337 0.1452 0.0726 0.2942 0.0726 0.2254 0 0.4012-0.149 0.1796-0.149 0.2942-0.4203l0.1796-0.4317-1.353-3.137q-0.03821-0.0917-0.09552-0.1223-0.05731-0.0344-0.1566-0.0344h-0.0917v-0.6495h0.4432q0.2407 0 0.3553 0.0802t0.2101 0.3171l0.8979 2.231q0.03439 0.0917 0.06877 0.2101 0.03439 0.1184 0.05349 0.1949l0.0191 0.0726h0.01528q0.05731-0.2751 0.1337-0.4776l0.8215-2.231q0.08788-0.2331 0.2101-0.3133 0.1261-0.0841 0.3706-0.0841h0.4547v0.6495h-0.1032q-0.09934 0-0.1566 0.0344-0.05731 0.0306-0.09552 0.1223l-1.563 3.863q-0.1758 0.4508-0.5158 0.6915-0.3362 0.2407-0.7603 0.2407-0.1643 0-0.3209-0.042-0.1566-0.0382-0.2636-0.0955t-0.191-0.1146q-0.08023-0.0573-0.1184-0.0993z" style="font-feature-settings:normal;font-variant-caps:normal;font-variant-ligatures:normal;font-variant-numeric:normal"/>
    </g>
    <g style="font-feature-settings:normal;font-variant-caps:normal;font-variant-ligatures:normal;font-variant-numeric:normal" aria-label="Proofreading">
      <path d="m-61.63 151.7-0.2742-0.0422v-0.1758h0.4676q0.1266 0 0.2496-0.0106 0.1898-0.0141 0.3586-0.0141 0.5098 4e-3 0.7207 0.1898 0.2109 0.1863 0.2109 0.5625 0 0.2812-0.1301 0.4887-0.1301 0.2074-0.3621 0.3164-0.2285 0.109-0.5273 0.109-0.102 0-0.2074-4e-3 -0.1055-7e-3 -0.1301-0.0105v0.7734l0.4816 0.0387v0.1723h-1.15v-0.1723l0.2918-0.0352zm0.3762 1.216q0.09844 0.0176 0.3375 0.0176 0.2777 0 0.45-0.1688 0.1758-0.1688 0.1758-0.552 0-0.3023-0.1512-0.4324-0.1512-0.1336-0.4711-0.1336-0.1125 0-0.2391 0.0141-0.07734 7e-3 -0.102 7e-3z" style="font-feature-settings:normal;font-variant-caps:normal;font-variant-ligatures:normal;font-variant-numeric:normal"/>
      <path d="m-58.48 154 0.2918-0.0352v-2.187l-0.2742-0.0457v-0.1723h0.4605q0.09844 0 0.2672-0.0141 0.1758-0.0141 0.2742-0.0141 0.5168 0 0.7348 0.1688 0.2215 0.1652 0.2215 0.5238 0 0.2496-0.1406 0.457-0.1371 0.2074-0.3797 0.2812 0.1125 0.0598 0.2074 0.2074 0.09844 0.1441 0.2391 0.4043 0.109 0.1969 0.1652 0.2883 0.05976 0.0914 0.1125 0.102l0.1371 0.0352v0.1723h-0.4852q-0.05625 0-0.1266-0.1195-0.07031-0.123-0.1863-0.3762-0.1266-0.2777-0.2215-0.4394-0.0914-0.1652-0.1828-0.2109-0.3762 0-0.4465-4e-3v0.9422l0.348 0.0352v0.1723h-1.016zm1.086-1.164q0.225 0 0.3551-0.1477 0.1301-0.1476 0.1301-0.4394 0-0.2566-0.1336-0.3902-0.1301-0.1371-0.4535-0.1371-0.1125 0-0.225 0.0141-0.07031 7e-3 -0.09141 7e-3v1.09q0.05273 4e-3 0.218 4e-3z" style="font-feature-settings:normal;font-variant-caps:normal;font-variant-ligatures:normal;font-variant-numeric:normal"/>
      <path d="m-53.77 154.2q-0.3586 0-0.6082-0.1652-0.2461-0.1652-0.3727-0.4641-0.1266-0.3023-0.1266-0.6996 0-0.4043 0.1512-0.7102 0.1547-0.3059 0.4219-0.4711 0.2672-0.1688 0.6012-0.1688 0.5484 0 0.8367 0.348 0.2918 0.3445 0.2918 0.9562 0 0.4113-0.1582 0.7242-0.1547 0.3094-0.4289 0.4816-0.2707 0.1688-0.6082 0.1688zm0.0457-2.496q-0.341 0-0.5379 0.2988-0.1969 0.2953-0.1969 0.8684 0 0.5273 0.1898 0.8367 0.1934 0.3058 0.5379 0.3058 0.3375 0 0.5344-0.3058 0.2004-0.3059 0.2004-0.8789 0-0.5308-0.1898-0.8262-0.1898-0.2988-0.5379-0.2988z" style="font-feature-settings:normal;font-variant-caps:normal;font-variant-ligatures:normal;font-variant-numeric:normal"/>
      <path d="m-50.05 154.2q-0.3586 0-0.6082-0.1652-0.2461-0.1652-0.3727-0.4641-0.1266-0.3023-0.1266-0.6996 0-0.4043 0.1512-0.7102 0.1547-0.3059 0.4219-0.4711 0.2672-0.1688 0.6012-0.1688 0.5484 0 0.8367 0.348 0.2918 0.3445 0.2918 0.9562 0 0.4113-0.1582 0.7242-0.1547 0.3094-0.4289 0.4816-0.2707 0.1688-0.6082 0.1688zm0.0457-2.496q-0.341 0-0.5379 0.2988-0.1969 0.2953-0.1969 0.8684 0 0.5273 0.1898 0.8367 0.1934 0.3058 0.5379 0.3058 0.3375 0 0.5344-0.3058 0.2004-0.3059 0.2004-0.8789 0-0.5308-0.1898-0.8262-0.1898-0.2988-0.5379-0.2988z" style="font-feature-settings:normal;font-variant-caps:normal;font-variant-ligatures:normal;font-variant-numeric:normal"/>
      <path d="m-47.11 151.7-0.3023-0.0422v-0.1758h1.881l0.03516 0.5976h-0.2285l-0.1055-0.3902-0.9035-0.0246v1.02l0.6363-0.0105 0.05976-0.2918h0.1863v0.8226h-0.1828l-0.06328-0.3059-0.6363-0.0141v1.002l0.5484 0.0352v0.1723h-1.206v-0.1723l0.2812-0.0352z" style="font-feature-settings:normal;font-variant-caps:normal;font-variant-ligatures:normal;font-variant-numeric:normal"/>
      <path d="m-44.05 154 0.2918-0.0352v-2.187l-0.2742-0.0457v-0.1723h0.4605q0.09844 0 0.2672-0.0141 0.1758-0.0141 0.2742-0.0141 0.5168 0 0.7348 0.1688 0.2215 0.1652 0.2215 0.5238 0 0.2496-0.1406 0.457-0.1371 0.2074-0.3797 0.2812 0.1125 0.0598 0.2074 0.2074 0.09844 0.1441 0.2391 0.4043 0.109 0.1969 0.1652 0.2883 0.05976 0.0914 0.1125 0.102l0.1371 0.0352v0.1723h-0.4852q-0.05625 0-0.1266-0.1195-0.07031-0.123-0.1863-0.3762-0.1266-0.2777-0.2215-0.4394-0.0914-0.1652-0.1828-0.2109-0.3762 0-0.4465-4e-3v0.9422l0.348 0.0352v0.1723h-1.016zm1.086-1.164q0.225 0 0.3551-0.1477 0.1301-0.1476 0.1301-0.4394 0-0.2566-0.1336-0.3902-0.1301-0.1371-0.4535-0.1371-0.1125 0-0.225 0.0141-0.07031 7e-3 -0.09141 7e-3v1.09q0.05273 4e-3 0.218 4e-3z" style="font-feature-settings:normal;font-variant-caps:normal;font-variant-ligatures:normal;font-variant-numeric:normal"/>
      <path d="m-40.11 151.7-0.2883-0.0422v-0.1758h1.789l0.04922 0.5449h-0.2004l-0.102-0.341-0.8719-0.0211v0.9914l0.5871-0.0105 0.04922-0.2918h0.1934v0.8086h-0.1934l-0.04922-0.3023-0.5871-0.0105v1.048l0.9914-0.0352 0.1863-0.443 0.2074 0.0633-0.102 0.6117h-1.951v-0.1723l0.2918-0.0352z" style="font-feature-settings:normal;font-variant-caps:normal;font-variant-ligatures:normal;font-variant-numeric:normal"/>
      <path d="m-36.09 151.5h0.3867l0.8543 2.426 0.218 0.0352v0.1723h-0.9281v-0.1723l0.2918-0.0352-0.1652-0.5203h-1.027l-0.1652 0.5203 0.3023 0.0352v0.1723h-0.8332v-0.1723l0.218-0.0352zm0.2215 0.5625-0.08789-0.3094-0.08437 0.3164-0.3551 1.128h0.8965z" style="font-feature-settings:normal;font-variant-caps:normal;font-variant-ligatures:normal;font-variant-numeric:normal"/>
      <path d="m-33.05 151.7-0.2742-0.0422v-0.1758h0.4605q0.109 0 0.3129-0.0141t0.3059-0.0141q0.6539 0 0.9703 0.3305 0.3199 0.327 0.3199 0.9211 0 0.4148-0.1652 0.7383-0.1617 0.3199-0.457 0.4992-0.2953 0.1793-0.6785 0.1793-0.08437 0-0.2883-0.0141-0.2109-0.0141-0.3164-0.0141h-0.4816v-0.1723l0.2918-0.0352zm0.3727 2.197q0.123 0.0281 0.3164 0.0281h0.1055q0.2637-4e-3 0.4641-0.1336 0.2039-0.1301 0.3164-0.3867 0.1125-0.2602 0.1125-0.6293 0-0.5555-0.2426-0.8437-0.2391-0.2883-0.7242-0.2883-0.102 0-0.2426 0.0141-0.05976 0.0105-0.1055 0.0105z" style="font-feature-settings:normal;font-variant-caps:normal;font-variant-ligatures:normal;font-variant-numeric:normal"/>
      <path d="m-29.15 151.7-0.3269-0.0422v-0.1758h1.034v0.1758l-0.3269 0.0422v2.187l0.3269 0.0387v0.1688h-1.03v-0.1723l0.3234-0.0352z" style="font-feature-settings:normal;font-variant-caps:normal;font-variant-ligatures:normal;font-variant-numeric:normal"/>
      <path d="m-26.62 151.7-0.2812-0.0422v-0.1758h0.6539l1.171 1.716 0.1969 0.3727v-1.87l-0.3059-0.0422v-0.1758h0.8297v0.1758l-0.2812 0.0422v2.394h-0.2777l-1.195-1.754-0.2707-0.4641v2.011l0.334 0.0352v0.1723h-0.8543v-0.1723l0.2812-0.0387z" style="font-feature-settings:normal;font-variant-caps:normal;font-variant-ligatures:normal;font-variant-numeric:normal"/>
      <path d="m-21.72 154.2q-0.3797 0-0.6574-0.1688-0.2742-0.1688-0.4184-0.464-0.1441-0.2988-0.1441-0.675 0-0.4324 0.1687-0.7418 0.1723-0.3094 0.4746-0.4676 0.3023-0.1617 0.6891-0.1617 0.3551 0 0.8191 0.109l-0.03164 0.6082h-0.2496l-0.08437-0.4219q-0.04922-0.0387-0.1687-0.0738-0.116-0.0352-0.3129-0.0352-0.2566 0-0.4535 0.1266t-0.3094 0.3762q-0.109 0.2496-0.109 0.6047 0 0.327 0.08789 0.5976 0.0914 0.2707 0.2742 0.4359 0.1863 0.1617 0.4535 0.1617 0.1687 0 0.3199-0.0387 0.1512-0.0422 0.232-0.109v-0.784l-0.443-0.0352v-0.2074h1.027v0.2074l-0.2039 0.0316v0.9457q-0.07734 4e-3 -0.2566 0.0598-0.1828 0.0563-0.3445 0.0879t-0.3586 0.0316z" style="font-feature-settings:normal;font-variant-caps:normal;font-variant-ligatures:normal;font-variant-numeric:normal"/>
    </g>
  </g>
</svg>
