<?xml version="1.0" encoding="UTF-8"?>
<svg version="1.1" viewBox="0 0 60.51 16.99" xmlns="http://www.w3.org/2000/svg">
  <g transform="translate(-39.49 -68.03)">
    <g stroke-width=".2646" aria-label="Katy Holvey">
      <path d="m39.49 68.94v-0.9095h1.07q0.3566 0 0.5168 0.1602t0.1602 0.5168v2.465h0.708q0.2274 0 0.3772-0.05168 0.1499-0.05168 0.2377-0.2015l1.659-2.889h1.189l-1.814 3.101q-0.09302 0.1654-0.2015 0.2894-0.1034 0.1189-0.1602 0.155l-0.05684 0.04134v0.02067q0.02067 0.0052 0.06201 0.02584 0.04134 0.02067 0.1499 0.1395 0.1137 0.1189 0.2067 0.3049l1.127 2.243q0.07235 0.155 0.1912 0.2015 0.1189 0.04134 0.3359 0.04134h0.2015v0.9095h-0.5839q-0.4496 0-0.6563-0.1034-0.2015-0.1034-0.3772-0.4599l-1.292-2.589q-0.08785-0.1705-0.248-0.2222-0.155-0.05684-0.4186-0.05684h-0.6356v3.431h-1.059v-6.33q0-0.2325-0.2325-0.2325z"/>
      <path d="m46.22 74q0-0.3566 0.1344-0.6408 0.1344-0.2894 0.3411-0.4754 0.2119-0.1912 0.5116-0.3256 0.3049-0.1395 0.5839-0.2119 0.2842-0.07235 0.6253-0.1137 0.3411-0.04134 0.5633-0.05168 0.2222-0.01033 0.4651-0.01033h0.2325v-0.05168q0-0.6976-0.2739-0.987-0.2739-0.2946-0.9095-0.2946-0.1189 0-0.248 0.0155t-0.2842 0.05684q-0.1499 0.04134-0.248 0.1292-0.09819 0.08785-0.09819 0.2119v0.3049h-0.9612v-0.5271q0-0.3049 0.2067-0.5219t0.5323-0.3101q0.3256-0.09819 0.5943-0.1344 0.2687-0.04134 0.5168-0.04134 0.6305 0 1.07 0.1602 0.4444 0.155 0.6821 0.4496 0.2429 0.2946 0.3462 0.6563 0.1034 0.3617 0.1034 0.832v2.274q0 0.2325 0.2325 0.2325h0.4341v0.8785h-0.9612q-0.6666 0-0.6666-0.615l0.02067-0.3152h-0.02067q-0.0155 0.04134-0.05168 0.1137-0.03617 0.07235-0.1809 0.2584-0.1395 0.1809-0.3204 0.3204-0.1757 0.1395-0.4858 0.2532-0.3101 0.1137-0.6666 0.1137-0.739 0-1.282-0.4341-0.5374-0.4392-0.5374-1.199zm1.034-0.05168q0 0.3514 0.2636 0.6046 0.2635 0.2532 0.7441 0.2532 0.4134 0 0.7493-0.2636 0.3359-0.2635 0.5064-0.646 0.1757-0.3876 0.1757-0.7958v-0.1809h-0.2687q-0.2067 0-0.3669 0.0052t-0.3979 0.03101q-0.2377 0.02067-0.4186 0.06201-0.1757 0.03617-0.3721 0.1137-0.1964 0.07751-0.3256 0.186-0.124 0.1034-0.2067 0.2687-0.08268 0.1602-0.08268 0.3617z"/>
      <path d="m52.1 70.97v-0.8217h0.7183v-1.473h1.008v1.473h1.282v0.8217h-1.282v2.46q0 0.3049 0.08268 0.5374 0.08268 0.2274 0.2015 0.3514 0.1189 0.124 0.2791 0.2015 0.1654 0.07235 0.2946 0.09302 0.1344 0.02067 0.2739 0.02067l0.2429-0.02067v0.9095q-0.1344 0.02067-0.3566 0.02067-0.1654 0-0.3307-0.0155-0.1602-0.0155-0.3721-0.06718-0.2067-0.05684-0.3876-0.1395-0.1809-0.08785-0.3617-0.2377-0.1809-0.155-0.3101-0.3566-0.124-0.2067-0.2067-0.5116-0.07751-0.3049-0.07751-0.6718v-2.573z"/>
      <path d="m55.79 77.2 0.4237-0.7441q0 0.0155 0.09302 0.1034 0.09819 0.08785 0.2946 0.1809 0.1964 0.09819 0.3979 0.09819 0.3049 0 0.5426-0.2015 0.2429-0.2015 0.3979-0.5684l0.2429-0.5839-1.829-4.243q-0.05168-0.124-0.1292-0.1654-0.07751-0.04651-0.2119-0.04651h-0.124v-0.8785h0.5994q0.3256 0 0.4806 0.1085 0.155 0.1085 0.2842 0.4289l1.214 3.018q0.04651 0.124 0.09302 0.2842 0.04651 0.1602 0.07235 0.2635l0.02584 0.09819h0.02067q0.07751-0.3721 0.1809-0.646l1.111-3.018q0.1189-0.3152 0.2842-0.4237 0.1705-0.1137 0.5013-0.1137h0.615v0.8785h-0.1395q-0.1344 0-0.2119 0.04651-0.07751 0.04134-0.1292 0.1654l-2.114 5.224q-0.2377 0.6098-0.6976 0.9353-0.4548 0.3256-1.028 0.3256-0.2222 0-0.4341-0.05684-0.2119-0.05168-0.3566-0.1292-0.1447-0.07751-0.2584-0.155-0.1085-0.07751-0.1602-0.1344z"/>
      <path d="m65.31 68.94v-0.9095h1.07q0.3566 0 0.5168 0.1602t0.1602 0.5168v2.615h3.798v-2.615q0-0.3566 0.1602-0.5168t0.5168-0.1602h1.07v0.9095h-0.4548q-0.2325 0-0.2325 0.2325v6.33h-1.059v-3.281h-3.798v3.281h-1.059v-6.33q0-0.2325-0.2325-0.2325z"/>
      <path d="m73.16 72.82q0-0.7906 0.3824-1.431 0.3876-0.646 1.044-1.003 0.6615-0.3617 1.452-0.3617 0.5943 0 1.121 0.2119 0.5323 0.2119 0.9198 0.5788 0.3927 0.3669 0.6201 0.8888 0.2274 0.5219 0.2274 1.116 0 0.7958-0.3876 1.447-0.3876 0.646-1.049 1.008-0.6615 0.3617-1.452 0.3617-0.7906 0-1.452-0.3617-0.6563-0.3617-1.044-1.008-0.3824-0.6511-0.3824-1.447zm1.044 0q0 0.832 0.5323 1.38 0.5374 0.5478 1.302 0.5478 0.7751 0 1.307-0.5478 0.5323-0.5478 0.5323-1.38 0-0.8217-0.5323-1.364-0.5323-0.5426-1.307-0.5426-0.7648 0-1.302 0.5426-0.5323 0.5426-0.5323 1.364z"/>
      <path d="m79.58 68.91v-0.8785h1.018q0.3566 0 0.5168 0.1602 0.1602 0.1602 0.1602 0.5168v5.684q0 0.2325 0.2325 0.2325h0.4341v0.8785h-1.018q-0.3566 0-0.5168-0.1602t-0.1602-0.5168v-5.684q0-0.2325-0.2325-0.2325z"/>
      <path d="m82.61 71.03v-0.8785h0.5271q0.3566 0 0.5271 0.1137 0.1705 0.1085 0.2894 0.4237l1.152 3.08q0.04651 0.1292 0.09302 0.3049t0.07235 0.2842l0.02584 0.1085h0.02067q0.08785-0.4031 0.1912-0.6976l1.142-3.08q0.1189-0.3152 0.2894-0.4237 0.1757-0.1137 0.5271-0.1137h0.4961v0.8785h-0.1085q-0.2636 0-0.3462 0.2119l-1.633 4.263h-1.183l-1.648-4.263q-0.08268-0.2119-0.3307-0.2119z"/>
      <path d="m88.63 72.83q0-0.6253 0.2067-1.152 0.2067-0.5323 0.5633-0.8888 0.3617-0.3617 0.8527-0.5633 0.4961-0.2015 1.065-0.2015 1.085 0 1.695 0.7131 0.6098 0.7131 0.6098 1.798l-0.03101 0.4186h-3.902q0.04651 0.8268 0.5684 1.313 0.5271 0.4806 1.271 0.4806 0.2584 0 0.5116-0.06201 0.2584-0.06718 0.4392-0.1602 0.1809-0.09302 0.3256-0.1809 0.1447-0.09302 0.217-0.1602l0.07235-0.06201 0.4444 0.7286q-0.03101 0.03101-0.09302 0.08785-0.06201 0.05168-0.2687 0.186-0.2015 0.1344-0.4289 0.2377-0.2222 0.1034-0.5684 0.186-0.3462 0.08785-0.7028 0.08785-1.256 0-2.052-0.801-0.7958-0.801-0.7958-2.005zm1.101-0.6253h2.837q-0.02067-0.6408-0.3824-1.003-0.3566-0.3617-0.8785-0.3617-0.6046 0-1.034 0.3566-0.4237 0.3566-0.5426 1.008z"/>
      <path d="m94.42 77.2 0.4237-0.7441q0 0.0155 0.09302 0.1034 0.09819 0.08785 0.2946 0.1809 0.1964 0.09819 0.3979 0.09819 0.3049 0 0.5426-0.2015 0.2429-0.2015 0.3979-0.5684l0.2429-0.5839-1.829-4.243q-0.05168-0.124-0.1292-0.1654-0.07752-0.04651-0.2119-0.04651h-0.124v-0.8785h0.5994q0.3256 0 0.4806 0.1085 0.155 0.1085 0.2842 0.4289l1.214 3.018q0.04651 0.124 0.09302 0.2842 0.04651 0.1602 0.07235 0.2635l0.02584 0.09819h0.02067q0.07752-0.3721 0.1809-0.646l1.111-3.018q0.1189-0.3152 0.2842-0.4237 0.1705-0.1137 0.5013-0.1137h0.6149v0.8785h-0.1395q-0.1344 0-0.2119 0.04651-0.07751 0.04134-0.1292 0.1654l-2.114 5.224q-0.2377 0.6098-0.6976 0.9353-0.4548 0.3256-1.028 0.3256-0.2222 0-0.4341-0.05684-0.2119-0.05168-0.3566-0.1292-0.1447-0.07751-0.2584-0.155-0.1085-0.07751-0.1602-0.1344z"/>
    </g>
    <g aria-label="Proofreading">
      <path d="m40.58 81.73-0.3709-0.05706v-0.2377h0.6324q0.1712 0 0.3376-0.01426 0.2568-0.01902 0.485-0.01902 0.6895 0.0048 0.9748 0.2568 0.2853 0.252 0.2853 0.7608 0 0.3804-0.1759 0.6609-0.1759 0.2805-0.4898 0.4279-0.3091 0.1474-0.7132 0.1474-0.1379 0-0.2805-0.0048-0.1426-0.0095-0.1759-0.01426v1.046l0.6514 0.0523v0.233h-1.555v-0.233l0.3947-0.04755zm0.5088 1.645q0.1331 0.02378 0.4565 0.02378 0.3756 0 0.6086-0.2282 0.2377-0.2282 0.2377-0.7465 0-0.4089-0.2045-0.5849-0.2045-0.1807-0.6372-0.1807-0.1522 0-0.3233 0.01902-0.1046 0.0095-0.1379 0.0095z"/>
      <path d="m44.84 84.74 0.3947-0.04755v-2.958l-0.3709-0.06181v-0.233h0.6229q0.1331 0 0.3614-0.01902 0.2377-0.01902 0.3709-0.01902 0.699 0 0.9938 0.2282 0.2996 0.2235 0.2996 0.7085 0 0.3376-0.1902 0.6181-0.1854 0.2805-0.5135 0.3804 0.1522 0.08083 0.2805 0.2805 0.1331 0.195 0.3233 0.5468 0.1474 0.2663 0.2235 0.3899 0.08084 0.1236 0.1522 0.1379l0.1854 0.04755v0.233h-0.6562q-0.07608 0-0.1712-0.1617-0.0951-0.1664-0.252-0.5088-0.1712-0.3756-0.2996-0.5944-0.1236-0.2235-0.2473-0.2853-0.5088 0-0.6039-0.0048v1.274l0.4707 0.04755v0.233h-1.374zm1.469-1.574q0.3043 0 0.4803-0.1997 0.1759-0.1997 0.1759-0.5944 0-0.3471-0.1807-0.5278-0.1759-0.1854-0.6134-0.1854-0.1522 0-0.3043 0.01902-0.0951 0.0095-0.1236 0.0095v1.474q0.07133 0.0048 0.2948 0.0048z"/>
      <path d="m51.21 85.02q-0.485 0-0.8226-0.2235-0.3328-0.2235-0.504-0.6277-0.1712-0.4089-0.1712-0.9462 0-0.5468 0.2045-0.9605 0.2092-0.4137 0.5706-0.6372 0.3614-0.2282 0.8131-0.2282 0.7418 0 1.132 0.4707 0.3947 0.466 0.3947 1.293 0 0.5563-0.214 0.9795-0.2092 0.4184-0.5801 0.6514-0.3661 0.2282-0.8226 0.2282zm0.06181-3.376q-0.4612 0-0.7275 0.4042-0.2663 0.3994-0.2663 1.174 0 0.7132 0.2568 1.132 0.2615 0.4137 0.7275 0.4137 0.4565 0 0.7228-0.4137 0.271-0.4137 0.271-1.189 0-0.718-0.2568-1.117-0.2568-0.4042-0.7275-0.4042z"/>
      <path d="m56.24 85.02q-0.485 0-0.8226-0.2235-0.3328-0.2235-0.504-0.6277-0.1712-0.4089-0.1712-0.9462 0-0.5468 0.2045-0.9605 0.2092-0.4137 0.5706-0.6372 0.3614-0.2282 0.8131-0.2282 0.7418 0 1.132 0.4707 0.3947 0.466 0.3947 1.293 0 0.5563-0.214 0.9795-0.2092 0.4184-0.5801 0.6514-0.3661 0.2282-0.8226 0.2282zm0.06181-3.376q-0.4612 0-0.7275 0.4042-0.2663 0.3994-0.2663 1.174 0 0.7132 0.2568 1.132 0.2615 0.4137 0.7275 0.4137 0.4565 0 0.7228-0.4137 0.271-0.4137 0.271-1.189 0-0.718-0.2568-1.117-0.2568-0.4042-0.7275-0.4042z"/>
      <path d="m60.22 81.73-0.4089-0.05706v-0.2377h2.544l0.04755 0.8083h-0.3091l-0.1426-0.5278-1.222-0.03329v1.379l0.8606-0.01426 0.08084-0.3947h0.252v1.113h-0.2473l-0.08559-0.4137-0.8606-0.01902v1.355l0.7418 0.04755v0.233h-1.631v-0.233l0.3804-0.04755z"/>
      <path d="m64.35 84.74 0.3947-0.04755v-2.958l-0.3709-0.06181v-0.233h0.6229q0.1331 0 0.3614-0.01902 0.2377-0.01902 0.3709-0.01902 0.699 0 0.9938 0.2282 0.2996 0.2235 0.2996 0.7085 0 0.3376-0.1902 0.6181-0.1854 0.2805-0.5135 0.3804 0.1522 0.08083 0.2805 0.2805 0.1331 0.195 0.3233 0.5468 0.1474 0.2663 0.2235 0.3899 0.08083 0.1236 0.1522 0.1379l0.1854 0.04755v0.233h-0.6562q-0.07608 0-0.1712-0.1617-0.0951-0.1664-0.252-0.5088-0.1712-0.3756-0.2996-0.5944-0.1236-0.2235-0.2473-0.2853-0.5088 0-0.6039-0.0048v1.274l0.4707 0.04755v0.233h-1.374zm1.469-1.574q0.3043 0 0.4803-0.1997 0.1759-0.1997 0.1759-0.5944 0-0.3471-0.1807-0.5278-0.1759-0.1854-0.6134-0.1854-0.1522 0-0.3043 0.01902-0.0951 0.0095-0.1236 0.0095v1.474q0.07132 0.0048 0.2948 0.0048z"/>
      <path d="m69.68 81.73-0.3899-0.05706v-0.2377h2.42l0.06657 0.737h-0.271l-0.1379-0.4612-1.179-0.02853v1.341l0.7941-0.01427 0.06657-0.3947h0.2615v1.094h-0.2615l-0.06657-0.4089-0.7941-0.01426v1.417l1.341-0.04755 0.252-0.5991 0.2805 0.08559-0.1379 0.8274h-2.639v-0.233l0.3947-0.04755z"/>
      <path d="m75.12 81.41h0.523l1.155 3.281 0.2948 0.04755v0.233h-1.255v-0.233l0.3947-0.04755-0.2235-0.7037h-1.388l-0.2235 0.7037 0.4089 0.04755v0.233h-1.127v-0.233l0.2948-0.04755zm0.2996 0.7608-0.1189-0.4184-0.1141 0.4279-0.4803 1.526h1.213z"/>
      <path d="m79.23 81.73-0.3709-0.05706v-0.2377h0.6229q0.1474 0 0.4232-0.01902 0.2758-0.01902 0.4137-0.01902 0.8844 0 1.312 0.447 0.4327 0.4422 0.4327 1.246 0 0.5611-0.2235 0.9985-0.2187 0.4327-0.6181 0.6752-0.3994 0.2425-0.9177 0.2425-0.1141 0-0.3899-0.01902-0.2853-0.01902-0.4279-0.01902h-0.6514v-0.233l0.3947-0.04755zm0.504 2.972q0.1664 0.03804 0.4279 0.03804h0.1426q0.3566-0.0048 0.6277-0.1807 0.2758-0.1759 0.4279-0.523 0.1522-0.3519 0.1522-0.8511 0-0.7513-0.3281-1.141-0.3233-0.3899-0.9795-0.3899-0.1379 0-0.3281 0.01902-0.08084 0.01426-0.1426 0.01426z"/>
      <path d="m84.51 81.73-0.4422-0.05706v-0.2377h1.398v0.2377l-0.4422 0.05706v2.958l0.4422 0.0523v0.2282h-1.393v-0.233l0.4375-0.04755z"/>
      <path d="m87.93 81.73-0.3804-0.05706v-0.2377h0.8844l1.583 2.32 0.2663 0.504v-2.53l-0.4137-0.05706v-0.2377h1.122v0.2377l-0.3804 0.05706v3.238h-0.3756l-1.617-2.373-0.3661-0.6277v2.72l0.4517 0.04755v0.233h-1.155v-0.233l0.3804-0.0523z"/>
      <path d="m94.55 85.02q-0.5135 0-0.8892-0.2282-0.3709-0.2282-0.5658-0.6277-0.195-0.4042-0.195-0.913 0-0.5849 0.2282-1.003 0.233-0.4184 0.6419-0.6324 0.4089-0.2187 0.932-0.2187 0.4803 0 1.108 0.1474l-0.04279 0.8226h-0.3376l-0.1141-0.5706q-0.06657-0.05231-0.2282-0.09985-0.1569-0.04755-0.4232-0.04755-0.3471 0-0.6134 0.1712-0.2663 0.1712-0.4184 0.5088-0.1474 0.3376-0.1474 0.8179 0 0.4422 0.1189 0.8083 0.1236 0.3661 0.3709 0.5896 0.252 0.2187 0.6134 0.2187 0.2282 0 0.4327-0.0523 0.2045-0.05706 0.3138-0.1474v-1.06l-0.5991-0.04755v-0.2805h1.388v0.2805l-0.2758 0.04279v1.279q-0.1046 0.0048-0.3471 0.08083-0.2473 0.07608-0.466 0.1189-0.2187 0.04279-0.485 0.04279z"/>
    </g>
    <path d="m59.59 78.31v0.2637h33.5v-0.2637z" />
    <path d="m40.18 78.31v0.2637h14.29v-0.2637z" />
  </g>
</svg>
