<?xml version="1.0" encoding="UTF-8"?>
<svg width="38.04mm" height="20.21mm" version="1.1" viewBox="0 0 38.04 20.21" xmlns="http://www.w3.org/2000/svg">
  <g transform="translate(43.47 -138.7)">
    <g transform="translate(7.917 -539.2)">
      <path d="m-13.81 677.9c-2.256 1.168-2.953 4-3.978 6.138-1.806 4.537-3.24 9.246-5.297 13.67 0.3617 1.048 1.38-0.1834 1.355-0.8175 2.694-5.536 3.855-11.76 7.069-17.05 0.2024-0.6948 1.887-1.079 1.11-1.877-0.07629-0.0489-0.1696-0.0688-0.2594-0.0604z"/>
      <path d="m-48.57 680.6c-1.111-0.023-2.965 0.0632-2.809 1.632 0.08745 4.134 0.02077 8.28-0.0088 12.39-0.05667 1.127 0.634 2.626 2.006 2.187 1.122-0.3793 2.327 0.0682 3.408-0.0175 0.6743-0.9723-1.117-1.032-1.717-1.052-0.8269-0.2025-2.009 0.4687-2.521-0.0169-0.5889-3.436 0.08081-6.967-0.2244-10.44-0.03668-1.186-0.07839-2.375 0.02638-3.559 1.73-0.3225 3.549-0.0809 5.241-0.1814 0.6122-0.9779-1.06-0.9066-1.625-0.9149-0.5914-0.0303-1.184-0.0548-1.776-0.0339z"/>
      <path d="m-33.95 682.6c-0.9197 0.5251-0.789 2.032-1.306 2.888-1.113 3.515-2.271 7.095-4.123 10.28 0.2729 0.9269 1.192 0.0919 1.326-0.4971 0.7995-1.346 1.362-2.813 1.944-4.261 1.35 1.7 2.161 3.938 3.825 5.315 1.152-0.2568-0.07489-1.365-0.4408-1.853-1.07-1.4-1.746-3.143-3.087-4.307 0.7357-2.42 1.721-4.828 2.355-7.247-0.06649-0.2025-0.2853-0.3264-0.4925-0.3158z"/>
      <path d="m-45.54 683.9c-0.9062 0.3936-0.1824 1.762-0.1023 2.5 0.3067 1.116 1.08 2.161 2.2 2.555 0.03642 1.985-0.2248 4.089 0.1313 6.009 1.005 0.5349 0.8436-1.074 0.787-1.637-0.01185-1.434-0.0068-2.867 0.02842-4.301 1.77-0.6751 2.49-2.885 2.561-4.586-0.9235-0.7643-1.007 0.9338-1.221 1.5-0.2656 1.014-1.188 2.824-2.439 1.882-1.322-0.8292-1.201-2.581-1.607-3.836-0.09569-0.0717-0.221-0.0964-0.3385-0.0863z"/>
      <path d="m-26.37 684.1c-0.08173-2e-3 -0.1642 4.2e-4 -0.247 6e-3 -1.979-0.0397-3.672 1.736-3.847 3.595 0.8527 0.8542 1.116-0.9036 1.516-1.408 1.067-1.812 4.197-1.656 4.821 0.4754 0.4243 0.9099 1.439-0.2477 0.6367-0.7865-0.5585-1.076-1.654-1.858-2.88-1.882zm2.601 6.195c-0.7842 0.5561-0.7967 1.921-1.78 2.402-1.522 1.053-3.512-0.2328-3.902-1.858-0.8551-0.5677-1.031 0.9249-0.3984 1.323 1.155 2.334 4.876 2.431 6.012-8e-3 0.2087-0.4897 1.178-1.776 0.06873-1.859z"/>
    </g>
  </g>
</svg>
