<?xml version="1.0" encoding="UTF-8"?>
<svg width="184.7" height="90.52" version="1.1" viewBox="0 0 48.87 23.95" xmlns="http://www.w3.org/2000/svg">
  <g transform="translate(64.5 -136.9)">
    <path transform="scale(.2646)" d="m-209.7 517.3c-0.7465-0.0526-1.53 0.1568-2.018 0.5176-0.4875 0.3607-0.7387 0.7658-0.6523 1.533a1.035 1.035 0 0 1 8e-3 0.1172c-0.0108 4.019 0.2206 8.054 0.4902 12.1a1.035 1.035 0 0 1 0 4e-3c0.2528 4.012 0.5957 8.024 0.9746 12.04a1.035 1.035 0 0 1-0.582 1.031c-0.2234 0.1074-0.4334 0.2196-0.6328 0.3438a1.035 1.035 0 0 1-0.0645 0.0371c-2.663 1.4-5.336 2.706-7.865 4.197a1.035 1.035 0 0 1-0.0312 0.0195c-2.67 1.449-5.35 3.007-8.236 4.254a1.035 1.035 0 0 1-0.127 0.0469c-0.1081 0.0307-0.2359 0.0877-0.4414 0.1738a1.035 1.035 0 0 1-0.1289 0.043c-1.048 0.2855-2.067 0.6509-3.045 1.109-0.7372 0.3456-1.486 0.8181-2.311 1.275-3.811 2.55-6.664 6.172-8.203 10.5-0.2857 0.8033-0.4848 1.704-0.75 2.646-0.7138 3.744-0.6352 7.482 1.236 10.71 1.372 2.369 1.939 2.495 4.115 4.256 1.014 0.5032 1.911 1.048 2.783 1.365 3.01 1.094 6.392 1.245 9.475 0.3965 2.861-0.7874 3.296-1.36 5.801-3.025 3.314-2.84 5.516-6.487 6.289-10.78 0.4627-2.57 0.2601-3.151 0.0742-5.777-0.6815-3.981-2.639-7.468-5.906-9.803 0.01 7e-3 0.0213 0.0168-0.0391-0.0254a1.035 1.035 0 0 1 0.0937-1.754c0.6107-0.3373 1.221-0.6678 1.826-0.9961l-0.0312 0.0195c1.971-1.163 3.986-2.198 5.982-3.227a1.035 1.035 0 0 1 1.504 0.8144c0.1962 1.914 0.385 3.827 0.5801 5.736 0.9756 9.385 1.547 18.79 1.848 28.19a1.035 1.035 0 0 1 0 6e-3c0.1646 6.033 0.1392 12.04 0.4746 18a1.035 1.035 0 0 1 0 0.0195c0.0353 0.9206 0.1266 1.823 0.291 2.717 0.1394 0.6783 0.4827 1.066 0.9941 1.344 0.5123 0.2778 1.211 0.388 1.869 0.3008 0.6583-0.0872 1.249-0.3706 1.586-0.7266 0.3373-0.3559 0.4983-0.7317 0.3594-1.412l0.0117 0.0527c-0.248-0.9568-0.1676-1.76-0.248-2.348a1.035 1.035 0 0 1-8e-3 -0.082c-0.34-6.013-0.3056-12-0.4726-17.95v-4e-3c-0.3035-9.468-0.8768-18.93-1.857-28.36a1.035 1.035 0 0 1 0-2e-3c-0.8679-8.492-1.795-17-2.334-25.55v-4e-3c-0.2741-4.099-0.4748-8.208-0.5078-12.33-0.0686-0.592-0.3047-0.9546-0.6777-1.246-0.3748-0.293-0.9154-0.4845-1.496-0.5254zm147.7 4.654c-0.3874 0.035-0.821 0.1608-1.293 0.4023-5.329 3.305-8.181 9.42-11.08 15.19-6.074 13.89-8.672 22.11-13.91 36.41-3.726 10.32-4.597 12.32-9.285 22.24-0.468 0.9904-0.4408 1.77-0.1895 2.412 0.2514 0.6416 0.7686 1.161 1.404 1.461 0.6357 0.3003 1.366 0.3695 2.021 0.1562s1.274-0.6854 1.742-1.676c4.781-10.12 5.678-12.17 9.477-22.69a1.035 1.035 0 0 1 2e-3 -4e-3c5.134-14.01 7.671-22.02 13.63-35.77a1.035 1.035 0 0 1 0.02344-0.0488c2.136-4.284 4.23-9.475 8.545-12.7a1.035 1.035 0 0 1 0.1406-0.0879c1.699-0.8874 1.936-2.167 1.57-3.336-0.3661-1.169-1.408-2.083-2.797-1.957zm-83.78 13.11c-1.036 0.0166-2.013 0.5021-2.568 2.049-1.063 2.962-3.035 9.772-4.975 16.56-1.939 6.788-3.852 13.56-4.885 16.71a1.035 1.035 0 0 1-4e-3 0.0156c-2.304 6.673-4.61 13.56-8.398 19.75a1.035 1.035 0 0 1-0.0371 0.0566c-0.6325 0.8943-0.7419 1.666-0.6055 2.342 0.1364 0.6756 0.5568 1.278 1.131 1.684 0.5741 0.406 1.28 0.6003 1.963 0.5039 0.6777-0.0958 1.363-0.4553 1.992-1.336 3.096-4.895 5.3-10.32 7.289-15.86a1.035 1.035 0 0 1 1.686-0.4024c1.684 1.594 4.146 4.539 6.568 7.426 2.422 2.887 4.825 5.731 6.031 6.836a1.035 1.035 0 0 1 0.0156 0.0156l2.014 1.922c0.7922 0.7538 1.541 0.9725 2.229 0.9356 0.6883-0.037 1.345-0.3638 1.83-0.873 0.4851-0.5092 0.7796-1.182 0.7832-1.871 4e-3 -0.6893-0.2499-1.424-1.043-2.18-0.7022-0.6686-1.406-1.336-2.109-2.006l-4e-3 -4e-3c-3e-3 -3e-3 -6e-3 -7e-3 -0.01-0.01-1.636-1.502-4.22-4.619-6.865-7.748-2.642-3.125-5.349-6.251-6.736-7.412-0.4189-0.3118-0.8166-0.5-1.195-0.6016a1.035 1.035 0 0 1-0.7227-1.303c2.344-7.664 7.183-25.55 9.238-31.28 0.4626-1.289 0.2104-2.182-0.3223-2.85-0.5327-0.6679-1.426-1.074-2.289-1.061zm32.05 9.949c-1.22 0.0364-2.452 0.2164-3.672 0.5156-0.6532 0.2137-1.271 0.3836-1.812 0.5957-2.666 1.044-4.979 2.737-6.629 5.033-1.237 1.943-2.24 4.033-3.17 6.201a1.035 1.035 0 0 1-0.0156 0.0352c-0.4638 0.9775-0.4382 1.746-0.1914 2.379 0.2468 0.6329 0.7563 1.146 1.383 1.443 0.6265 0.2973 1.346 0.3674 1.992 0.1582s1.257-0.6749 1.721-1.652c0.8407-1.824 1.611-3.804 2.848-5.633a1.035 1.035 0 0 1 0.0312-0.043c1.443-1.912 3.562-2.775 5.551-3.361a1.035 1.035 0 0 1 0.0742-0.0195c2.505-0.5443 4.745-0.2118 6.928 1.139a1.035 1.035 0 0 1 0.0527 0.0351c1.718 1.215 2.738 2.958 3.498 4.678l-6e-3 -0.0137c0.4505 0.9837 1.054 1.458 1.697 1.676s1.366 0.1579 1.996-0.1309c0.6305-0.2888 1.147-0.7962 1.402-1.426 0.2553-0.6296 0.2904-1.395-0.1602-2.379-1.389-2.967-3.187-5.526-5.896-7.215-0.6201-0.3353-1.166-0.6764-1.676-0.9024-1.895-0.84-3.901-1.174-5.945-1.113zm-76.75 0.7051c-0.703 0.0124-1.386 0.2744-1.879 0.7559s-0.8378 1.18-0.8184 2.275a1.035 1.035 0 0 1 0 4e-3c0.0398 2.943 0.6377 5.841 1.549 8.686 1.056 2.957 2.757 5.575 5.219 7.445 0.4127 0.3135 0.9162 0.6123 1.445 0.9609 0.069 0.0331 0.1609 0.0714 0.2988 0.1367a1.035 1.035 0 0 1 0.5859 1.035c-0.7004 7.215-0.8112 12.27-1.182 17.75-0.0842 1.486-0.0429 0.8234-0.127 2.107-0.0714 1.093 0.2395 1.806 0.709 2.311 0.4695 0.5045 1.14 0.7998 1.842 0.8457 0.7014 0.0458 1.406-0.1586 1.938-0.5977 0.5307-0.4388 0.9321-1.107 1.004-2.199v-2e-3c0.0894-1.372 0.0469-0.641 0.1367-2.227v-0.01c0.0794-1.688 0.5318-10.33 1.186-17.55a1.035 1.035 0 0 1 0.6777-0.8789c0.1431-0.0521 0.1898-0.0636 0.1523-0.0488 1.832-0.7147 2.117-1.203 3.648-2.57 2.94-3.285 4.275-7.576 5.439-12 0.1077-0.4496 0.2158-0.9014 0.3242-1.354 0.2549-1.065 0.067-1.822-0.3105-2.398-0.3776-0.5764-0.9902-0.9791-1.674-1.143s-1.412-0.0815-2.01 0.2617c-0.5977 0.3432-1.106 0.9327-1.361 1.998-0.0952 0.4119-0.1945 0.8147-0.2891 1.211a1.035 1.035 0 0 1-4e-3 0.0215c-0.8057 3.085-1.648 6.413-3.736 9.225a1.035 1.035 0 0 1-0.0566 0.0703c-0.4325 0.4869-0.7897 1.002-1.451 1.391-0.6615 0.3888-1.582 0.4327-2.49 0.1192a1.035 1.035 0 0 1-0.1934-0.0898c-2.13-1.273-3.686-3.124-4.486-5.529l-2e-3 -6e-3c-0.7819-2.275-1.22-4.655-1.277-7.07a1.035 1.035 0 0 1 0-6e-3c-0.0194-1.095-0.3884-1.78-0.8984-2.244s-1.205-0.7019-1.908-0.6894zm-37.4 13.21c0.1518-0.0282 1.036 0.2437 0.6016 0.1328 1.176 0.2081 2.35 0.5462 3.467 1.09a1.035 1.035 0 0 1 0.0391 0.0195c2.672 1.442 4.27 3.51 4.943 6.525a1.035 1.035 0 0 1 0.0176 0.1094c0.0608 0.5394 0.1887 1.16 0.209 1.875 0.1075 3.788-1.454 7.281-4.15 9.854a1.035 1.035 0 0 1-0.0918 0.0781c-0.4691 0.3545-0.9782 0.8342-1.66 1.248-3.134 1.901-6.84 1.831-10.04 0.3828a1.035 1.035 0 0 1-0.1367-0.0762c-0.3532-0.23-0.8571-0.4698-1.373-0.9043-2.633-2.22-2.723-5.617-2.254-8.449a1.035 1.035 0 0 1 0.0176-0.084c0.1422-0.5629 0.254-1.213 0.4844-1.908 1.072-3.236 3.08-6.047 5.879-8.031a1.035 1.035 0 0 1 0.0684-0.0449c0.4599-0.2736 0.9621-0.6285 1.576-0.9356 0.6864-0.3433 1.39-0.6134 2.096-0.834a1.035 1.035 0 0 1 0.3066-0.0469zm125.2 9.465c-1.022-0.0187-2.003 0.4258-2.604 1.934-0.1926 0.4917-0.3859 0.9836-0.5781 1.475a1.035 1.035 0 0 1-0.0234 0.0586c-1.186 2.553-2.719 5.402-5.861 6.572a1.035 1.035 0 0 1-0.0762 0.0234c-0.3066 0.0879-0.6973 0.2465-1.201 0.3418-2.308 0.4362-4.553-0.3293-6.342-1.518a1.035 1.035 0 0 1-0.1074-0.082c-1.504-1.311-2.758-2.871-3.449-4.875a1.035 1.035 0 0 1-0.0254-0.0879c-0.2624-1.05-0.7705-1.625-1.363-1.957s-1.311-0.4065-1.984-0.2383c-0.6731 0.1682-1.274 0.5726-1.641 1.145-0.3632 0.5666-0.5351 1.308-0.2832 2.342 0.7664 2.356 1.958 4.559 3.633 6.326 0.3925 0.4142 0.8763 0.8254 1.375 1.289 2.948 2.251 6.522 3.5 10.19 3.104 0.6863-0.0743 1.448-0.2908 2.297-0.4668 4.006-1.261 6.669-3.836 8.74-7.537 0.3349-0.5984 0.6304-1.28 0.9785-1.99 0.2573-0.6382 0.5144-1.278 0.7715-1.916 0.5004-1.257 0.2813-2.143-0.2207-2.818-0.502-0.6757-1.369-1.107-2.221-1.123z"/>
  </g>
</svg>
